# xmcd
#
# Track frame offsets:
#  150
#  16370
#  35377
#  49105
#  63635
#  77192
#  92140
#  109582
#  126002
#  141522
#  154560
#  170900
#  184837
#  200050
#  217990
#  234500
#  253125
#  268460
#  283407
#  297317
#  310057
#
# Disc length: 4389 seconds
#
# Revision: 5
# Processed by: cddbd v1.5.1PL0 Copyright (c) Steve Scherf et al.
# Submitted via: Collectorz.com_Music_Collector 6.9
#
DISCID=4a112315
DTITLE=Various Artist - Country Nights Disk 1
DYEAR=1990
DGENRE=Country
TTITLE0=Alabama - When we make love
TTITLE1=Dan Seals - Addicted
TTITLE2=Highway 101 - Whiskey, If you were a woman
TTITLE3=Anne Murray - Could I have this dance
TTITLE4=Billy Joe Royal - Love has no right
TTITLE5=Don Williams - Just as long as I have you
TTITLE6=Michael Johnson - The moon is still over her shoulder
TTITLE7=Steve Wariner - Small town girl
TTITLE8=The Judds - Why not me
TTITLE9=George Strait - Let's fall to pieces together
TTITLE10=Eddie Rabbitt - On Second thought
TTITLE11=Ricky Van Shelton - I'll leave this world loving you
TTITLE12=Reba McEntire - Whoever's in New England
TTITLE13=Hank Williams, Jr. - Country State of Mind
TTITLE14=Randy Travis - Deeper than the Holler
TTITLE15=Baillie and the Boys - (Wish I had a) Heart of Stone
TTITLE16=Merle Haggard - Twinkle, Twinkle Luck Star
TTITLE17=Leon Everette - My Lady loves me (just as I am)
TTITLE18=Dolly Parton - I will always love you
TTITLE19=Michael Martin - What's forever for
TTITLE20=Ronnie Milsap - Lost in the fifties tonight
EXTD=
EXTT0=
EXTT1=
EXTT2=
EXTT3=
EXTT4=
EXTT5=
EXTT6=
EXTT7=
EXTT8=
EXTT9=
EXTT10=
EXTT11=
EXTT12=
EXTT13=
EXTT14=
EXTT15=
EXTT16=
EXTT17=
EXTT18=
EXTT19=
EXTT20=
PLAYORDER=
